<?xml version="1.0" encoding="UTF-8" standalone="no"?>
<!DOCTYPE svg PUBLIC "-//W3C//DTD SVG 1.1//EN"
 "http://www.w3.org/Graphics/SVG/1.1/DTD/svg11.dtd">
<!-- Generated by graphviz version 2.47.3 (20210619.1520)
 -->
<!-- Title: dependencies Pages: 1 -->
<svg width="1360pt" height="247pt"
 viewBox="0.00 0.00 1360.00 246.80" xmlns="http://www.w3.org/2000/svg" xmlns:xlink="http://www.w3.org/1999/xlink">
<g id="graph0" class="graph" transform="scale(1 1) rotate(0) translate(4 242.8)">
<title>dependencies</title>
<polygon fill="white" stroke="transparent" points="-4,4 -4,-242.8 1356,-242.8 1356,4 -4,4"/>
<text text-anchor="middle" x="676" y="-8.2" font-family="sans-serif" font-size="14.00">dependencies</text>
<g id="clust1" class="cluster">
<title>cluster_AppModule</title>
<polygon fill="none" stroke="black" stroke-dasharray="1,5" points="8,-32.8 8,-230.8 1344,-230.8 1344,-32.8 8,-32.8"/>
</g>
<g id="clust11" class="cluster">
<title>cluster_AppModule_imports</title>
<polygon fill="none" stroke="black" points="1192,-40.8 1192,-92.8 1336,-92.8 1336,-40.8 1192,-40.8"/>
</g>
<g id="clust13" class="cluster">
<title>cluster_AppModule_bootstrap</title>
<polygon fill="none" stroke="black" points="641,-170.8 641,-222.8 765,-222.8 765,-170.8 641,-170.8"/>
</g>
<g id="clust2" class="cluster">
<title>cluster_AppModule_declarations</title>
<polygon fill="none" stroke="black" points="16,-40.8 16,-92.8 1184,-92.8 1184,-40.8 16,-40.8"/>
</g>
<!-- AppComponent -->
<g id="node1" class="node">
<title>AppComponent</title>
<polygon fill="#ffffb3" stroke="black" points="1175.94,-84.8 1070.06,-84.8 1070.06,-48.8 1175.94,-48.8 1175.94,-84.8"/>
<text text-anchor="middle" x="1123" y="-62.6" font-family="Times,serif" font-size="14.00">AppComponent</text>
</g>
<!-- AppModule -->
<g id="node9" class="node">
<title>AppModule</title>
<polygon fill="#8dd3c7" stroke="black" points="744.66,-149.8 741.66,-153.8 720.66,-153.8 717.66,-149.8 661.34,-149.8 661.34,-113.8 744.66,-113.8 744.66,-149.8"/>
<text text-anchor="middle" x="703" y="-127.6" font-family="Times,serif" font-size="14.00">AppModule</text>
</g>
<!-- AppComponent&#45;&gt;AppModule -->
<g id="edge1" class="edge">
<title>AppComponent&#45;&gt;AppModule</title>
<path fill="none" stroke="black" d="M1123,-84.93C1123,-105.37 1123,-135.8 1123,-135.8 1123,-135.8 754.81,-135.8 754.81,-135.8"/>
<polygon fill="black" stroke="black" points="754.81,-132.3 744.81,-135.8 754.81,-139.3 754.81,-132.3"/>
</g>
<!-- DemoComponent -->
<g id="node2" class="node">
<title>DemoComponent</title>
<polygon fill="#ffffb3" stroke="black" points="1052.55,-84.8 937.45,-84.8 937.45,-48.8 1052.55,-48.8 1052.55,-84.8"/>
<text text-anchor="middle" x="995" y="-62.6" font-family="Times,serif" font-size="14.00">DemoComponent</text>
</g>
<!-- DemoComponent&#45;&gt;AppModule -->
<g id="edge2" class="edge">
<title>DemoComponent&#45;&gt;AppModule</title>
<path fill="none" stroke="black" d="M995,-85.07C995,-103.36 995,-128.8 995,-128.8 995,-128.8 754.84,-128.8 754.84,-128.8"/>
<polygon fill="black" stroke="black" points="754.84,-125.3 744.84,-128.8 754.84,-132.3 754.84,-125.3"/>
</g>
<!-- DrawAnimComponent -->
<g id="node3" class="node">
<title>DrawAnimComponent</title>
<polygon fill="#ffffb3" stroke="black" points="919.31,-84.8 774.69,-84.8 774.69,-48.8 919.31,-48.8 919.31,-84.8"/>
<text text-anchor="middle" x="847" y="-62.6" font-family="Times,serif" font-size="14.00">DrawAnimComponent</text>
</g>
<!-- DrawAnimComponent&#45;&gt;AppModule -->
<g id="edge3" class="edge">
<title>DrawAnimComponent&#45;&gt;AppModule</title>
<path fill="none" stroke="black" d="M847,-84.81C847,-100.85 847,-121.8 847,-121.8 847,-121.8 755.04,-121.8 755.04,-121.8"/>
<polygon fill="black" stroke="black" points="755.04,-118.3 745.04,-121.8 755.04,-125.3 755.04,-118.3"/>
</g>
<!-- MapComponent -->
<g id="node4" class="node">
<title>MapComponent</title>
<polygon fill="#ffffb3" stroke="black" points="756.49,-84.8 649.51,-84.8 649.51,-48.8 756.49,-48.8 756.49,-84.8"/>
<text text-anchor="middle" x="703" y="-62.6" font-family="Times,serif" font-size="14.00">MapComponent</text>
</g>
<!-- MapComponent&#45;&gt;AppModule -->
<g id="edge4" class="edge">
<title>MapComponent&#45;&gt;AppModule</title>
<path fill="none" stroke="black" d="M703,-84.91C703,-84.91 703,-103.79 703,-103.79"/>
<polygon fill="black" stroke="black" points="699.5,-103.79 703,-113.79 706.5,-103.79 699.5,-103.79"/>
</g>
<!-- StockListComponent -->
<g id="node5" class="node">
<title>StockListComponent</title>
<polygon fill="#ffffb3" stroke="black" points="631.5,-84.8 496.5,-84.8 496.5,-48.8 631.5,-48.8 631.5,-84.8"/>
<text text-anchor="middle" x="564" y="-62.6" font-family="Times,serif" font-size="14.00">StockListComponent</text>
</g>
<!-- StockListComponent&#45;&gt;AppModule -->
<g id="edge5" class="edge">
<title>StockListComponent&#45;&gt;AppModule</title>
<path fill="none" stroke="black" d="M564,-84.81C564,-100.85 564,-121.8 564,-121.8 564,-121.8 651.3,-121.8 651.3,-121.8"/>
<polygon fill="black" stroke="black" points="651.3,-125.3 661.3,-121.8 651.3,-118.3 651.3,-125.3"/>
</g>
<!-- TreeChildComponent -->
<g id="node6" class="node">
<title>TreeChildComponent</title>
<polygon fill="#ffffb3" stroke="black" points="478.09,-84.8 339.91,-84.8 339.91,-48.8 478.09,-48.8 478.09,-84.8"/>
<text text-anchor="middle" x="409" y="-62.6" font-family="Times,serif" font-size="14.00">TreeChildComponent</text>
</g>
<!-- TreeChildComponent&#45;&gt;AppModule -->
<g id="edge6" class="edge">
<title>TreeChildComponent&#45;&gt;AppModule</title>
<path fill="none" stroke="black" d="M409,-85.07C409,-103.36 409,-128.8 409,-128.8 409,-128.8 651.19,-128.8 651.19,-128.8"/>
<polygon fill="black" stroke="black" points="651.19,-132.3 661.19,-128.8 651.19,-125.3 651.19,-132.3"/>
</g>
<!-- TreeParentComponent -->
<g id="node7" class="node">
<title>TreeParentComponent</title>
<polygon fill="#ffffb3" stroke="black" points="322.24,-84.8 179.76,-84.8 179.76,-48.8 322.24,-48.8 322.24,-84.8"/>
<text text-anchor="middle" x="251" y="-62.6" font-family="Times,serif" font-size="14.00">TreeParentComponent</text>
</g>
<!-- TreeParentComponent&#45;&gt;AppModule -->
<g id="edge7" class="edge">
<title>TreeParentComponent&#45;&gt;AppModule</title>
<path fill="none" stroke="black" d="M251,-84.93C251,-105.37 251,-135.8 251,-135.8 251,-135.8 651.29,-135.8 651.29,-135.8"/>
<polygon fill="black" stroke="black" points="651.29,-139.3 661.29,-135.8 651.29,-132.3 651.29,-139.3"/>
</g>
<!-- TreeViewComponent -->
<g id="node8" class="node">
<title>TreeViewComponent</title>
<polygon fill="#ffffb3" stroke="black" points="161.79,-84.8 24.21,-84.8 24.21,-48.8 161.79,-48.8 161.79,-84.8"/>
<text text-anchor="middle" x="93" y="-62.6" font-family="Times,serif" font-size="14.00">TreeViewComponent</text>
</g>
<!-- TreeViewComponent&#45;&gt;AppModule -->
<g id="edge8" class="edge">
<title>TreeViewComponent&#45;&gt;AppModule</title>
<path fill="none" stroke="black" d="M93,-84.81C93,-107.29 93,-142.8 93,-142.8 93,-142.8 651.07,-142.8 651.07,-142.8"/>
<polygon fill="black" stroke="black" points="651.07,-146.3 661.07,-142.8 651.07,-139.3 651.07,-146.3"/>
</g>
<!-- AppComponent  -->
<g id="node11" class="node">
<title>AppComponent </title>
<polygon fill="#80b1d3" stroke="black" points="757.44,-214.8 648.56,-214.8 648.56,-178.8 757.44,-178.8 757.44,-214.8"/>
<text text-anchor="middle" x="703" y="-192.6" font-family="Times,serif" font-size="14.00">AppComponent </text>
</g>
<!-- AppModule&#45;&gt;AppComponent  -->
<g id="edge10" class="edge">
<title>AppModule&#45;&gt;AppComponent </title>
<path fill="none" stroke="black" stroke-dasharray="1,5" d="M703,-149.91C703,-149.91 703,-168.79 703,-168.79"/>
<polygon fill="black" stroke="black" points="699.5,-168.79 703,-178.79 706.5,-168.79 699.5,-168.79"/>
</g>
<!-- AppRoutingModule -->
<g id="node10" class="node">
<title>AppRoutingModule</title>
<polygon fill="#8dd3c7" stroke="black" points="1328.27,-84.8 1325.27,-88.8 1304.27,-88.8 1301.27,-84.8 1199.73,-84.8 1199.73,-48.8 1328.27,-48.8 1328.27,-84.8"/>
<text text-anchor="middle" x="1264" y="-62.6" font-family="Times,serif" font-size="14.00">AppRoutingModule</text>
</g>
<!-- AppRoutingModule&#45;&gt;AppModule -->
<g id="edge9" class="edge">
<title>AppRoutingModule&#45;&gt;AppModule</title>
<path fill="none" stroke="black" d="M1264,-84.81C1264,-107.29 1264,-142.8 1264,-142.8 1264,-142.8 754.71,-142.8 754.71,-142.8"/>
<polygon fill="black" stroke="black" points="754.71,-139.3 744.71,-142.8 754.71,-146.3 754.71,-139.3"/>
</g>
</g>
</svg>
