<?xml version="1.0" encoding="UTF-8" standalone="no"?>
<!DOCTYPE svg PUBLIC "-//W3C//DTD SVG 1.1//EN"
 "http://www.w3.org/Graphics/SVG/1.1/DTD/svg11.dtd">
<!-- Generated by graphviz version 2.47.3 (20210619.1520)
 -->
<!-- Title: dependencies Pages: 1 -->
<svg width="1360pt" height="247pt"
 viewBox="0.00 0.00 1360.00 246.80" xmlns="http://www.w3.org/2000/svg" xmlns:xlink="http://www.w3.org/1999/xlink">
<g id="graph0" class="graph" transform="scale(1 1) rotate(0) translate(4 242.8)">
<title>dependencies</title>
<polygon fill="white" stroke="transparent" points="-4,4 -4,-242.8 1356,-242.8 1356,4 -4,4"/>
<text text-anchor="middle" x="676" y="-8.2" font-family="sans-serif" font-size="14.00">dependencies</text>
<g id="clust1" class="cluster">
<title>cluster_AppModule</title>
<polygon fill="none" stroke="black" stroke-dasharray="1,5" points="8,-32.8 8,-230.8 1344,-230.8 1344,-32.8 8,-32.8"/>
</g>
<g id="clust2" class="cluster">
<title>cluster_AppModule_declarations</title>
<polygon fill="none" stroke="black" points="168,-40.8 168,-92.8 1336,-92.8 1336,-40.8 168,-40.8"/>
</g>
<g id="clust11" class="cluster">
<title>cluster_AppModule_imports</title>
<polygon fill="none" stroke="black" points="16,-40.8 16,-92.8 160,-92.8 160,-40.8 16,-40.8"/>
</g>
<g id="clust13" class="cluster">
<title>cluster_AppModule_bootstrap</title>
<polygon fill="none" stroke="black" points="654,-170.8 654,-222.8 778,-222.8 778,-170.8 654,-170.8"/>
</g>
<!-- AppComponent -->
<g id="node1" class="node">
<title>AppComponent</title>
<polygon fill="#ffffb3" stroke="black" points="1327.94,-84.8 1222.06,-84.8 1222.06,-48.8 1327.94,-48.8 1327.94,-84.8"/>
<text text-anchor="middle" x="1275" y="-62.6" font-family="Times,serif" font-size="14.00">AppComponent</text>
</g>
<!-- AppModule -->
<g id="node9" class="node">
<title>AppModule</title>
<polygon fill="#8dd3c7" stroke="black" points="757.66,-149.8 754.66,-153.8 733.66,-153.8 730.66,-149.8 674.34,-149.8 674.34,-113.8 757.66,-113.8 757.66,-149.8"/>
<text text-anchor="middle" x="716" y="-127.6" font-family="Times,serif" font-size="14.00">AppModule</text>
</g>
<!-- AppComponent&#45;&gt;AppModule -->
<g id="edge1" class="edge">
<title>AppComponent&#45;&gt;AppModule</title>
<path fill="none" stroke="black" d="M1275,-84.81C1275,-107.29 1275,-142.8 1275,-142.8 1275,-142.8 768.02,-142.8 768.02,-142.8"/>
<polygon fill="black" stroke="black" points="768.02,-139.3 758.02,-142.8 768.02,-146.3 768.02,-139.3"/>
</g>
<!-- DemoComponent -->
<g id="node2" class="node">
<title>DemoComponent</title>
<polygon fill="#ffffb3" stroke="black" points="1204.55,-84.8 1089.45,-84.8 1089.45,-48.8 1204.55,-48.8 1204.55,-84.8"/>
<text text-anchor="middle" x="1147" y="-62.6" font-family="Times,serif" font-size="14.00">DemoComponent</text>
</g>
<!-- DemoComponent&#45;&gt;AppModule -->
<g id="edge2" class="edge">
<title>DemoComponent&#45;&gt;AppModule</title>
<path fill="none" stroke="black" d="M1147,-84.93C1147,-105.37 1147,-135.8 1147,-135.8 1147,-135.8 767.72,-135.8 767.72,-135.8"/>
<polygon fill="black" stroke="black" points="767.72,-132.3 757.72,-135.8 767.72,-139.3 767.72,-132.3"/>
</g>
<!-- DrawAnimComponent -->
<g id="node3" class="node">
<title>DrawAnimComponent</title>
<polygon fill="#ffffb3" stroke="black" points="1071.31,-84.8 926.69,-84.8 926.69,-48.8 1071.31,-48.8 1071.31,-84.8"/>
<text text-anchor="middle" x="999" y="-62.6" font-family="Times,serif" font-size="14.00">DrawAnimComponent</text>
</g>
<!-- DrawAnimComponent&#45;&gt;AppModule -->
<g id="edge3" class="edge">
<title>DrawAnimComponent&#45;&gt;AppModule</title>
<path fill="none" stroke="black" d="M999,-85.07C999,-103.36 999,-128.8 999,-128.8 999,-128.8 767.76,-128.8 767.76,-128.8"/>
<polygon fill="black" stroke="black" points="767.76,-125.3 757.76,-128.8 767.76,-132.3 767.76,-125.3"/>
</g>
<!-- MapComponent -->
<g id="node4" class="node">
<title>MapComponent</title>
<polygon fill="#ffffb3" stroke="black" points="908.49,-84.8 801.51,-84.8 801.51,-48.8 908.49,-48.8 908.49,-84.8"/>
<text text-anchor="middle" x="855" y="-62.6" font-family="Times,serif" font-size="14.00">MapComponent</text>
</g>
<!-- MapComponent&#45;&gt;AppModule -->
<g id="edge4" class="edge">
<title>MapComponent&#45;&gt;AppModule</title>
<path fill="none" stroke="black" d="M855,-84.81C855,-100.85 855,-121.8 855,-121.8 855,-121.8 767.7,-121.8 767.7,-121.8"/>
<polygon fill="black" stroke="black" points="767.7,-118.3 757.7,-121.8 767.7,-125.3 767.7,-118.3"/>
</g>
<!-- StockListComponent -->
<g id="node5" class="node">
<title>StockListComponent</title>
<polygon fill="#ffffb3" stroke="black" points="783.5,-84.8 648.5,-84.8 648.5,-48.8 783.5,-48.8 783.5,-84.8"/>
<text text-anchor="middle" x="716" y="-62.6" font-family="Times,serif" font-size="14.00">StockListComponent</text>
</g>
<!-- StockListComponent&#45;&gt;AppModule -->
<g id="edge5" class="edge">
<title>StockListComponent&#45;&gt;AppModule</title>
<path fill="none" stroke="black" d="M716,-84.91C716,-84.91 716,-103.79 716,-103.79"/>
<polygon fill="black" stroke="black" points="712.5,-103.79 716,-113.79 719.5,-103.79 712.5,-103.79"/>
</g>
<!-- TreeChildComponent -->
<g id="node6" class="node">
<title>TreeChildComponent</title>
<polygon fill="#ffffb3" stroke="black" points="630.09,-84.8 491.91,-84.8 491.91,-48.8 630.09,-48.8 630.09,-84.8"/>
<text text-anchor="middle" x="561" y="-62.6" font-family="Times,serif" font-size="14.00">TreeChildComponent</text>
</g>
<!-- TreeChildComponent&#45;&gt;AppModule -->
<g id="edge6" class="edge">
<title>TreeChildComponent&#45;&gt;AppModule</title>
<path fill="none" stroke="black" d="M561,-84.81C561,-100.85 561,-121.8 561,-121.8 561,-121.8 664.05,-121.8 664.05,-121.8"/>
<polygon fill="black" stroke="black" points="664.05,-125.3 674.05,-121.8 664.05,-118.3 664.05,-125.3"/>
</g>
<!-- TreeParentComponent -->
<g id="node7" class="node">
<title>TreeParentComponent</title>
<polygon fill="#ffffb3" stroke="black" points="474.24,-84.8 331.76,-84.8 331.76,-48.8 474.24,-48.8 474.24,-84.8"/>
<text text-anchor="middle" x="403" y="-62.6" font-family="Times,serif" font-size="14.00">TreeParentComponent</text>
</g>
<!-- TreeParentComponent&#45;&gt;AppModule -->
<g id="edge7" class="edge">
<title>TreeParentComponent&#45;&gt;AppModule</title>
<path fill="none" stroke="black" d="M403,-85.07C403,-103.36 403,-128.8 403,-128.8 403,-128.8 664.11,-128.8 664.11,-128.8"/>
<polygon fill="black" stroke="black" points="664.11,-132.3 674.11,-128.8 664.11,-125.3 664.11,-132.3"/>
</g>
<!-- TreeViewComponent -->
<g id="node8" class="node">
<title>TreeViewComponent</title>
<polygon fill="#ffffb3" stroke="black" points="313.79,-84.8 176.21,-84.8 176.21,-48.8 313.79,-48.8 313.79,-84.8"/>
<text text-anchor="middle" x="245" y="-62.6" font-family="Times,serif" font-size="14.00">TreeViewComponent</text>
</g>
<!-- TreeViewComponent&#45;&gt;AppModule -->
<g id="edge8" class="edge">
<title>TreeViewComponent&#45;&gt;AppModule</title>
<path fill="none" stroke="black" d="M245,-84.93C245,-105.37 245,-135.8 245,-135.8 245,-135.8 664.2,-135.8 664.2,-135.8"/>
<polygon fill="black" stroke="black" points="664.2,-139.3 674.2,-135.8 664.2,-132.3 664.2,-139.3"/>
</g>
<!-- AppComponent  -->
<g id="node11" class="node">
<title>AppComponent </title>
<polygon fill="#80b1d3" stroke="black" points="770.44,-214.8 661.56,-214.8 661.56,-178.8 770.44,-178.8 770.44,-214.8"/>
<text text-anchor="middle" x="716" y="-192.6" font-family="Times,serif" font-size="14.00">AppComponent </text>
</g>
<!-- AppModule&#45;&gt;AppComponent  -->
<g id="edge10" class="edge">
<title>AppModule&#45;&gt;AppComponent </title>
<path fill="none" stroke="black" stroke-dasharray="1,5" d="M716,-149.91C716,-149.91 716,-168.79 716,-168.79"/>
<polygon fill="black" stroke="black" points="712.5,-168.79 716,-178.79 719.5,-168.79 712.5,-168.79"/>
</g>
<!-- AppRoutingModule -->
<g id="node10" class="node">
<title>AppRoutingModule</title>
<polygon fill="#8dd3c7" stroke="black" points="152.27,-84.8 149.27,-88.8 128.27,-88.8 125.27,-84.8 23.73,-84.8 23.73,-48.8 152.27,-48.8 152.27,-84.8"/>
<text text-anchor="middle" x="88" y="-62.6" font-family="Times,serif" font-size="14.00">AppRoutingModule</text>
</g>
<!-- AppRoutingModule&#45;&gt;AppModule -->
<g id="edge9" class="edge">
<title>AppRoutingModule&#45;&gt;AppModule</title>
<path fill="none" stroke="black" d="M88,-84.81C88,-107.29 88,-142.8 88,-142.8 88,-142.8 664.31,-142.8 664.31,-142.8"/>
<polygon fill="black" stroke="black" points="664.31,-146.3 674.31,-142.8 664.31,-139.3 664.31,-146.3"/>
</g>
</g>
</svg>
